<svg width="32" height="33" viewBox="0 0 32 33" fill="none" xmlns="http://www.w3.org/2000/svg">
<path d="M2.66699 3.16667H4.987C6.427 3.16667 7.56033 4.40667 7.44033 5.83334L6.33366 19.1133C6.14699 21.2867 7.86698 23.1533 10.0537 23.1533H24.2537C26.1737 23.1533 27.8537 21.58 28.0003 19.6733L28.7203 9.67335C28.8803 7.46001 27.2003 5.66 24.9737 5.66H7.76034" stroke="white" stroke-width="1.5" stroke-miterlimit="10" stroke-linecap="round" stroke-linejoin="round"/>
<path d="M21.6667 29.8333C22.5871 29.8333 23.3333 29.0871 23.3333 28.1667C23.3333 27.2462 22.5871 26.5 21.6667 26.5C20.7462 26.5 20 27.2462 20 28.1667C20 29.0871 20.7462 29.8333 21.6667 29.8333Z" stroke="white" stroke-width="1.5" stroke-miterlimit="10" stroke-linecap="round" stroke-linejoin="round"/>
<path d="M10.9997 29.8333C11.9201 29.8333 12.6663 29.0871 12.6663 28.1667C12.6663 27.2462 11.9201 26.5 10.9997 26.5C10.0792 26.5 9.33301 27.2462 9.33301 28.1667C9.33301 29.0871 10.0792 29.8333 10.9997 29.8333Z" stroke="white" stroke-width="1.5" stroke-miterlimit="10" stroke-linecap="round" stroke-linejoin="round"/>
<path d="M12 11.1667H28" stroke="white" stroke-width="1.5" stroke-miterlimit="10" stroke-linecap="round" stroke-linejoin="round"/>
</svg>
