<svg width="60" height="60" viewBox="0 0 60 60" fill="none" xmlns="http://www.w3.org/2000/svg">
<path d="M30 22.5V5L25 10" stroke="#653B17" stroke-width="3" stroke-linecap="round" stroke-linejoin="round"/>
<path d="M30 5L35 10" stroke="#653B17" stroke-width="3" stroke-linecap="round" stroke-linejoin="round"/>
<path d="M4.9502 32.5H15.9752C16.9252 32.5 17.7752 33.025 18.2002 33.875L21.1252 39.725C21.9752 41.425 23.7002 42.5 25.6002 42.5H34.4252C36.3252 42.5 38.0502 41.425 38.9002 39.725L41.8252 33.875C42.2502 33.025 43.1252 32.5 44.0502 32.5H54.9502" stroke="#653B17" stroke-width="3" stroke-linecap="round" stroke-linejoin="round"/>
<path d="M17.5 12.8252C8.65 14.1252 5 19.3252 5 30.0002V37.5002C5 50.0002 10 55.0002 22.5 55.0002H37.5C50 55.0002 55 50.0002 55 37.5002V30.0002C55 19.3252 51.35 14.1252 42.5 12.8252" stroke="#653B17" stroke-width="3" stroke-linecap="round" stroke-linejoin="round"/>
</svg>
